<svg width="27" height="27" viewBox="0 0 27 27" fill="none" xmlns="http://www.w3.org/2000/svg">
<mask id="path-1-outside-1_1376_1822" maskUnits="userSpaceOnUse" x="0" y="0" width="27" height="27" fill="black">
<rect fill="white" width="27" height="27"/>
<path fill-rule="evenodd" clip-rule="evenodd" d="M19.5193 23.0059C17.7787 24.1104 15.714 24.75 13.5 24.75C11.2322 24.75 9.12113 24.079 7.35448 22.9246C7.20082 22.7328 7.0491 22.5393 6.89937 22.3444C6.7206 22.1099 6.62416 21.823 6.625 21.5281C6.625 20.855 7.10875 20.2906 7.75562 20.1963C12.0337 19.5713 14.9794 19.625 19.2631 20.2181C19.5734 20.2631 19.8568 20.4188 20.0612 20.6565C20.2656 20.8942 20.377 21.1978 20.375 21.5113C20.375 21.8113 20.2719 22.1025 20.0856 22.33C19.8995 22.5575 19.7107 22.7828 19.5193 23.0059ZM21.6156 21.291C21.5154 20.1214 20.6269 19.1454 19.4344 18.9806C15.0494 18.3738 11.9844 18.3156 7.575 18.96C6.37491 19.1352 5.49127 20.1197 5.38562 21.2922C3.44367 19.2705 2.25 16.5246 2.25 13.5C2.25 7.28687 7.28687 2.25 13.5 2.25C19.7131 2.25 24.75 7.28687 24.75 13.5C24.75 16.524 23.5568 19.2694 21.6156 21.291ZM26 13.5C26 20.4037 20.4037 26 13.5 26C6.59625 26 1 20.4037 1 13.5C1 6.59625 6.59625 1 13.5 1C20.4037 1 26 6.59625 26 13.5ZM14.9351 13.8395C14.4801 14.028 13.9925 14.125 13.5 14.125C12.5054 14.125 11.5516 13.7299 10.8483 13.0267C10.1451 12.3234 9.75 11.3696 9.75 10.375C9.75 9.38044 10.1451 8.42661 10.8483 7.72335C11.5516 7.02009 12.5054 6.625 13.5 6.625C13.9925 6.625 14.4801 6.722 14.9351 6.91045C15.39 7.09891 15.8034 7.37513 16.1516 7.72335C16.4999 8.07157 16.7761 8.48497 16.9645 8.93994C17.153 9.39491 17.25 9.88254 17.25 10.375C17.25 10.8675 17.153 11.3551 16.9645 11.8101C16.7761 12.265 16.4999 12.6784 16.1516 13.0267C15.8034 13.3749 15.39 13.6511 14.9351 13.8395ZM17.0355 13.9105C16.0979 14.8482 14.8261 15.375 13.5 15.375C12.1739 15.375 10.9021 14.8482 9.96447 13.9105C9.02678 12.9729 8.5 11.7011 8.5 10.375C8.5 9.04892 9.02678 7.77715 9.96447 6.83947C10.9021 5.90178 12.1739 5.375 13.5 5.375C14.8261 5.375 16.0979 5.90178 17.0355 6.83947C17.9732 7.77715 18.5 9.04892 18.5 10.375C18.5 11.7011 17.9732 12.9729 17.0355 13.9105Z"/>
</mask>
<path fill-rule="evenodd" clip-rule="evenodd" d="M19.5193 23.0059C17.7787 24.1104 15.714 24.75 13.5 24.75C11.2322 24.75 9.12113 24.079 7.35448 22.9246C7.20082 22.7328 7.0491 22.5393 6.89937 22.3444C6.7206 22.1099 6.62416 21.823 6.625 21.5281C6.625 20.855 7.10875 20.2906 7.75562 20.1963C12.0337 19.5713 14.9794 19.625 19.2631 20.2181C19.5734 20.2631 19.8568 20.4188 20.0612 20.6565C20.2656 20.8942 20.377 21.1978 20.375 21.5113C20.375 21.8113 20.2719 22.1025 20.0856 22.33C19.8995 22.5575 19.7107 22.7828 19.5193 23.0059ZM21.6156 21.291C21.5154 20.1214 20.6269 19.1454 19.4344 18.9806C15.0494 18.3738 11.9844 18.3156 7.575 18.96C6.37491 19.1352 5.49127 20.1197 5.38562 21.2922C3.44367 19.2705 2.25 16.5246 2.25 13.5C2.25 7.28687 7.28687 2.25 13.5 2.25C19.7131 2.25 24.75 7.28687 24.75 13.5C24.75 16.524 23.5568 19.2694 21.6156 21.291ZM26 13.5C26 20.4037 20.4037 26 13.5 26C6.59625 26 1 20.4037 1 13.5C1 6.59625 6.59625 1 13.5 1C20.4037 1 26 6.59625 26 13.5ZM14.9351 13.8395C14.4801 14.028 13.9925 14.125 13.5 14.125C12.5054 14.125 11.5516 13.7299 10.8483 13.0267C10.1451 12.3234 9.75 11.3696 9.75 10.375C9.75 9.38044 10.1451 8.42661 10.8483 7.72335C11.5516 7.02009 12.5054 6.625 13.5 6.625C13.9925 6.625 14.4801 6.722 14.9351 6.91045C15.39 7.09891 15.8034 7.37513 16.1516 7.72335C16.4999 8.07157 16.7761 8.48497 16.9645 8.93994C17.153 9.39491 17.25 9.88254 17.25 10.375C17.25 10.8675 17.153 11.3551 16.9645 11.8101C16.7761 12.265 16.4999 12.6784 16.1516 13.0267C15.8034 13.3749 15.39 13.6511 14.9351 13.8395ZM17.0355 13.9105C16.0979 14.8482 14.8261 15.375 13.5 15.375C12.1739 15.375 10.9021 14.8482 9.96447 13.9105C9.02678 12.9729 8.5 11.7011 8.5 10.375C8.5 9.04892 9.02678 7.77715 9.96447 6.83947C10.9021 5.90178 12.1739 5.375 13.5 5.375C14.8261 5.375 16.0979 5.90178 17.0355 6.83947C17.9732 7.77715 18.5 9.04892 18.5 10.375C18.5 11.7011 17.9732 12.9729 17.0355 13.9105Z" fill="white"/>
<path d="M19.5193 23.0059L19.6265 23.1747L19.6517 23.1587L19.6711 23.1361L19.5193 23.0059ZM7.35448 22.9246L7.19838 23.0496L7.21834 23.0746L7.24508 23.092L7.35448 22.9246ZM6.89937 22.3444L6.74033 22.4656L6.74076 22.4662L6.89937 22.3444ZM6.625 21.5281L6.825 21.5287V21.5281H6.625ZM7.75562 20.1963L7.7845 20.3942L7.78454 20.3942L7.75562 20.1963ZM19.2631 20.2181L19.2918 20.0202L19.2906 20.02L19.2631 20.2181ZM20.375 21.5113L20.175 21.51V21.5113H20.375ZM20.0856 22.33L19.9309 22.2033L19.9308 22.2033L20.0856 22.33ZM21.6156 21.291L21.4163 21.3081L21.454 21.748L21.7598 21.4295L21.6156 21.291ZM19.4344 18.9806L19.407 19.1787L19.407 19.1787L19.4344 18.9806ZM7.575 18.96L7.60389 19.1579L7.60392 19.1579L7.575 18.96ZM5.38562 21.2922L5.24138 21.4308L5.54543 21.7473L5.58481 21.3102L5.38562 21.2922ZM14.9351 13.8395L14.8585 13.6548L14.8585 13.6548L14.9351 13.8395ZM10.8483 7.72335L10.9898 7.86477L10.9898 7.86477L10.8483 7.72335ZM14.9351 6.91045L14.8585 7.09523L14.8585 7.09523L14.9351 6.91045ZM16.1516 7.72335L16.0102 7.86477L16.0102 7.86477L16.1516 7.72335ZM16.1516 13.0267L16.0102 12.8852L16.0102 12.8852L16.1516 13.0267ZM17.0355 13.9105L17.177 14.052L17.177 14.052L17.0355 13.9105ZM9.96447 13.9105L9.82304 14.052L9.82304 14.052L9.96447 13.9105ZM9.96447 6.83947L9.82304 6.69804L9.82304 6.69804L9.96447 6.83947ZM17.0355 6.83947L17.177 6.69804L17.177 6.69804L17.0355 6.83947ZM13.5 24.95C15.7531 24.95 17.8548 24.299 19.6265 23.1747L19.4122 22.837C17.7027 23.9218 15.675 24.55 13.5 24.55V24.95ZM7.24508 23.092C9.04326 24.267 11.1922 24.95 13.5 24.95V24.55C11.2722 24.55 9.19899 23.8909 7.46388 22.7572L7.24508 23.092ZM7.51058 22.7996C7.35777 22.6088 7.20689 22.4164 7.05799 22.2226L6.74076 22.4662C6.89131 22.6622 7.04386 22.8567 7.19838 23.0496L7.51058 22.7996ZM7.05842 22.2231C6.90633 22.0236 6.82429 21.7795 6.825 21.5287L6.425 21.5276C6.42404 21.8664 6.53487 22.1962 6.74033 22.4656L7.05842 22.2231ZM6.825 21.5281C6.825 20.9516 7.23856 20.4738 7.7845 20.3942L7.72675 19.9983C6.97894 20.1074 6.425 20.7584 6.425 21.5281H6.825ZM7.78454 20.3942C12.0417 19.7722 14.9682 19.8254 19.2357 20.4162L19.2906 20.02C14.9906 19.4246 12.0258 19.3703 7.72671 19.9984L7.78454 20.3942ZM19.2344 20.4161C19.4969 20.4541 19.7367 20.5858 19.9095 20.7869L20.2128 20.5261C19.977 20.2518 19.6498 20.0721 19.2918 20.0202L19.2344 20.4161ZM19.9095 20.7869C20.0824 20.988 20.1767 21.2448 20.175 21.51L20.575 21.5125C20.5773 21.1508 20.4487 20.8004 20.2128 20.5261L19.9095 20.7869ZM20.175 21.5113C20.175 21.766 20.0873 22.0122 19.9309 22.2033L20.2404 22.4567C20.4564 22.1928 20.575 21.8566 20.575 21.5113H20.175ZM19.9308 22.2033C19.7457 22.4296 19.5579 22.6537 19.3675 22.8757L19.6711 23.1361C19.8635 22.9118 20.0533 22.6853 20.2404 22.4567L19.9308 22.2033ZM21.8148 21.2739C21.7069 20.014 20.7496 18.9604 19.4617 18.7825L19.407 19.1787C20.5042 19.3303 21.3238 20.2288 21.4163 21.3081L21.8148 21.2739ZM19.4618 18.7825C15.0606 18.1734 11.9765 18.1147 7.54608 18.7621L7.60392 19.1579C11.9923 18.5166 15.0382 18.5741 19.407 19.1787L19.4618 18.7825ZM7.54611 18.7621C6.25093 18.9512 5.30006 20.0132 5.18643 21.2743L5.58481 21.3102C5.68248 20.2262 6.49889 19.3192 7.60389 19.1579L7.54611 18.7621ZM2.05 13.5C2.05 16.5783 3.26509 19.3733 5.24138 21.4308L5.52986 21.1537C3.62225 19.1677 2.45 16.4709 2.45 13.5H2.05ZM13.5 2.05C7.17642 2.05 2.05 7.17642 2.05 13.5H2.45C2.45 7.39733 7.39733 2.45 13.5 2.45V2.05ZM24.95 13.5C24.95 7.17642 19.8236 2.05 13.5 2.05V2.45C19.6027 2.45 24.55 7.39733 24.55 13.5H24.95ZM21.7598 21.4295C23.7354 19.3722 24.95 16.5777 24.95 13.5H24.55C24.55 16.4703 23.3782 19.1666 21.4713 21.1525L21.7598 21.4295ZM13.5 26.2C20.5142 26.2 26.2 20.5142 26.2 13.5H25.8C25.8 20.2933 20.2933 25.8 13.5 25.8V26.2ZM0.8 13.5C0.8 20.5142 6.48579 26.2 13.5 26.2V25.8C6.70671 25.8 1.2 20.2933 1.2 13.5H0.8ZM13.5 0.8C6.48579 0.8 0.8 6.48579 0.8 13.5H1.2C1.2 6.70671 6.70671 1.2 13.5 1.2V0.8ZM26.2 13.5C26.2 6.48579 20.5142 0.8 13.5 0.8V1.2C20.2933 1.2 25.8 6.70671 25.8 13.5H26.2ZM13.5 14.325C14.0187 14.325 14.5324 14.2228 15.0116 14.0243L14.8585 13.6548C14.4278 13.8332 13.9662 13.925 13.5 13.925V14.325ZM10.7069 13.1681C11.4477 13.9088 12.4524 14.325 13.5 14.325V13.925C12.5585 13.925 11.6555 13.551 10.9898 12.8852L10.7069 13.1681ZM9.55 10.375C9.55 11.4226 9.96616 12.4273 10.7069 13.1681L10.9898 12.8852C10.324 12.2195 9.95 11.3165 9.95 10.375H9.55ZM10.7069 7.58193C9.96616 8.3227 9.55 9.3274 9.55 10.375H9.95C9.95 9.43348 10.324 8.53053 10.9898 7.86477L10.7069 7.58193ZM13.5 6.425C12.4524 6.425 11.4477 6.84116 10.7069 7.58193L10.9898 7.86477C11.6555 7.19902 12.5585 6.825 13.5 6.825V6.425ZM15.0116 6.72568C14.5324 6.52717 14.0187 6.425 13.5 6.425V6.825C13.9662 6.825 14.4278 6.91682 14.8585 7.09523L15.0116 6.72568ZM16.2931 7.58193C15.9263 7.21514 15.4908 6.92418 15.0116 6.72568L14.8585 7.09523C15.2892 7.27363 15.6806 7.53512 16.0102 7.86477L16.2931 7.58193ZM17.1493 8.8634C16.9508 8.38416 16.6599 7.94872 16.2931 7.58193L16.0102 7.86477C16.3399 8.19442 16.6014 8.58577 16.7798 9.01647L17.1493 8.8634ZM17.45 10.375C17.45 9.85628 17.3478 9.34264 17.1493 8.8634L16.7798 9.01647C16.9582 9.44718 17.05 9.90881 17.05 10.375H17.45ZM17.1493 11.8866C17.3478 11.4074 17.45 10.8937 17.45 10.375H17.05C17.05 10.8412 16.9582 11.3028 16.7798 11.7335L17.1493 11.8866ZM16.2931 13.1681C16.6599 12.8013 16.9508 12.3658 17.1493 11.8866L16.7798 11.7335C16.6014 12.1642 16.3399 12.5556 16.0102 12.8852L16.2931 13.1681ZM15.0116 14.0243C15.4908 13.8258 15.9263 13.5349 16.2931 13.1681L16.0102 12.8852C15.6806 13.2149 15.2892 13.4764 14.8585 13.6548L15.0116 14.0243ZM13.5 15.575C14.8791 15.575 16.2018 15.0271 17.177 14.052L16.8941 13.7691C15.9939 14.6693 14.773 15.175 13.5 15.175V15.575ZM9.82304 14.052C10.7982 15.0271 12.1209 15.575 13.5 15.575V15.175C12.227 15.175 11.0061 14.6693 10.1059 13.7691L9.82304 14.052ZM8.3 10.375C8.3 11.7541 8.84786 13.0768 9.82304 14.052L10.1059 13.7691C9.20571 12.8689 8.7 11.648 8.7 10.375H8.3ZM9.82304 6.69804C8.84786 7.67323 8.3 8.99587 8.3 10.375H8.7C8.7 9.10196 9.20571 7.88106 10.1059 6.98089L9.82304 6.69804ZM13.5 5.175C12.1209 5.175 10.7982 5.72286 9.82304 6.69804L10.1059 6.98089C11.0061 6.08071 12.227 5.575 13.5 5.575V5.175ZM17.177 6.69804C16.2018 5.72286 14.8791 5.175 13.5 5.175V5.575C14.773 5.575 15.9939 6.08071 16.8941 6.98089L17.177 6.69804ZM18.7 10.375C18.7 8.99587 18.1521 7.67323 17.177 6.69804L16.8941 6.98089C17.7943 7.88106 18.3 9.10196 18.3 10.375H18.7ZM17.177 14.052C18.1521 13.0768 18.7 11.7541 18.7 10.375H18.3C18.3 11.648 17.7943 12.8689 16.8941 13.7691L17.177 14.052Z" fill="white" mask="url(#path-1-outside-1_1376_1822)"/>
</svg>
