<svg width="20" height="14" viewBox="0 0 20 14" fill="none" xmlns="http://www.w3.org/2000/svg">
<path d="M18.6667 5.91649H4.39921L7.51921 2.79649C7.72177 2.59393 7.83556 2.3192 7.83556 2.03274C7.83556 1.74628 7.72177 1.47155 7.51921 1.26899C7.31665 1.06643 7.04192 0.952637 6.75546 0.952637C6.469 0.952637 6.19427 1.06643 5.99171 1.26899L1.01921 6.24149C0.918778 6.34172 0.839102 6.46076 0.784738 6.59182C0.730375 6.72287 0.702393 6.86336 0.702393 7.00524C0.702393 7.14712 0.730375 7.28761 0.784738 7.41867C0.839102 7.54972 0.918778 7.66877 1.01921 7.76899L5.99171 12.7415C6.092 12.8418 6.21107 12.9213 6.34212 12.9756C6.47316 13.0299 6.61362 13.0578 6.75546 13.0578C6.8973 13.0578 7.03775 13.0299 7.1688 12.9756C7.29984 12.9213 7.41891 12.8418 7.51921 12.7415C7.6195 12.6412 7.69906 12.5221 7.75334 12.3911C7.80762 12.26 7.83556 12.1196 7.83556 11.9777C7.83556 11.8359 7.80762 11.6954 7.75334 11.5644C7.69906 11.4334 7.6195 11.3143 7.51921 11.214L4.39921 8.08316H18.6667C19.2625 8.08316 19.75 7.59566 19.75 6.99983C19.75 6.40399 19.2625 5.91649 18.6667 5.91649Z" fill="#3E447C"/>
</svg>
