<svg width="29" height="22" viewBox="0 0 29 22" fill="none" xmlns="http://www.w3.org/2000/svg">
<path d="M8.56818 0H11.8636V8.56818H8.56818V0Z" fill="white"/>
<path d="M17.1364 0H20.4318V8.56818H17.1364V0Z" fill="white"/>
<path d="M23.0682 0H25.0455C27.2295 0 29 1.77051 29 3.95455V8.56818H23.0682V0Z" fill="white"/>
<path d="M23.0682 10.5455H29V17.1364C29 19.3204 27.2295 21.0909 25.0455 21.0909H23.0682V10.5455Z" fill="white"/>
<path d="M0 3.95455C0 1.77051 1.77051 0 3.95455 0H5.93182V8.56818H0V3.95455Z" fill="white"/>
<path d="M8.56818 10.5455H11.8636V21.0909H8.56818V10.5455Z" fill="white"/>
<path d="M0 10.5455H5.93182V21.0909H3.95455C1.77051 21.0909 0 19.3204 0 17.1364V10.5455Z" fill="white"/>
<path d="M17.1364 10.5455H20.4318V21.0909H17.1364V10.5455Z" fill="white"/>
<path d="M11.8636 13.1818H17.1364V21.0909H11.8636V13.1818Z" fill="white"/>
<path d="M11.8636 0H17.1364V6.59091H11.8636V0Z" fill="white"/>
</svg>
