<svg width="50" height="50" viewBox="0 0 50 50" fill="none" xmlns="http://www.w3.org/2000/svg">
<path d="M50 5C50 2.23858 47.7614 0 45 0H0V50H45C47.7614 50 50 47.7614 50 45V5Z" fill="#5362F1"/>
<path d="M19.8969 30.2936H19.8968C19.0048 30.2938 18.1476 30.6349 17.5141 31.2448C17.5141 31.2448 17.5141 31.2449 17.5141 31.2449L14.8125 33.8453V17.0079C14.8125 16.6785 14.9484 16.3606 15.1935 16.1246C15.439 15.8883 15.7739 15.754 16.125 15.754H34.875C35.2261 15.754 35.561 15.8883 35.8065 16.1246C36.0516 16.3606 36.1875 16.6785 36.1875 17.0079V29.0397C36.1875 29.3691 36.0516 29.687 35.8065 29.923C35.561 30.1593 35.2261 30.2936 34.875 30.2936H19.8969ZM12.75 36.2482V36.2482C12.75 36.4487 12.8119 36.6438 12.9266 36.8088C13.0411 36.9736 13.2029 37.1007 13.3904 37.1753C13.5778 37.2498 13.7834 37.2691 13.9817 37.2309C14.1799 37.1928 14.3631 37.0987 14.5077 36.9592C14.5078 36.9592 14.5078 36.9592 14.5078 36.9592C14.5078 36.9591 14.5079 36.959 14.508 36.959L18.9656 32.6684L18.9656 32.6684C19.211 32.4321 19.5458 32.2977 19.8969 32.2976C19.8969 32.2976 19.8969 32.2976 19.8969 32.2976H34.875C35.7671 32.2976 36.6245 31.9566 37.2581 31.3467C37.892 30.7365 38.25 29.9069 38.25 29.0397V17.0079C38.25 16.1407 37.892 15.3111 37.2581 14.7009C36.6245 14.091 35.7671 13.75 34.875 13.75H16.125C15.2329 13.75 14.3755 14.091 13.7419 14.7009C13.108 15.3111 12.75 16.1407 12.75 17.0079V36.2482Z" fill="white" stroke="white" stroke-width="0.5"/>
</svg>
