<svg width="82" height="82" viewBox="0 0 82 82" fill="none" xmlns="http://www.w3.org/2000/svg">
<circle cx="41" cy="41" r="39" fill="white"/>
<path fill-rule="evenodd" clip-rule="evenodd" d="M12.7292 14.6294C12.7292 14.6294 15.2124 12.0955 16.987 10.6855C18.749 9.28551 19.8071 8.5759 21.7555 7.44972C23.7386 6.30356 24.9016 5.72873 27.035 4.89514C29.171 4.0605 32.655 3.19208 32.655 3.19208L34.4521 14.3312C36.4979 13.8406 38.6335 13.5807 40.8298 13.5807C43.2605 13.5807 45.6169 13.899 47.8595 14.4961L49.6327 3.5051L55.2527 5.20816L60.5322 7.76275L65.3007 10.9986L69.5584 14.9424L60.5277 22.0015C63.5155 25.1264 65.7671 28.9612 67.0041 33.2272L77.6495 28.7631L79.0115 34.4047L79.5061 40.1462L79.1567 46.0008L77.8979 51.7367L67.1742 47.8184C65.9238 52.5441 63.4357 56.7664 60.0778 60.1174L69.2178 67.2619L64.9601 71.2058L60.1916 74.4416L54.9121 76.9962L49.2921 78.6993L47.448 67.2692C45.3293 67.7979 43.1123 68.0785 40.8298 68.0785C38.6501 68.0785 36.5302 67.8226 34.4984 67.3391L32.6657 78.6993L27.0456 76.9962L21.7662 74.4416L16.9976 71.2058L12.7399 67.2619L21.7133 60.2477C18.3225 56.9092 15.802 52.6893 14.5231 47.9593L3.73564 51.9009L2.47688 46.165L2.1275 40.3104L2.6221 34.5689L3.98408 28.9273L14.6107 33.3835C15.8972 28.8447 18.3305 24.7878 21.5777 21.546L12.7292 14.6294ZM67.3975 40.8296C67.3975 55.5026 55.5027 67.3973 40.8298 67.3973C26.1569 67.3973 14.2621 55.5026 14.2621 40.8296C14.2621 26.1567 26.1569 14.2619 40.8298 14.2619C55.5027 14.2619 67.3975 26.1567 67.3975 40.8296Z" fill="#4051F0"/>
<path d="M40.8298 67.3973C55.5027 67.3973 67.3975 55.5026 67.3975 40.8296C67.3975 26.1567 55.5027 14.2619 40.8298 14.2619C26.1569 14.2619 14.2621 26.1567 14.2621 40.8296C14.2621 55.5026 26.1569 67.3973 40.8298 67.3973Z" fill="#4051F0"/>
<path fill-rule="evenodd" clip-rule="evenodd" d="M12.7292 14.6294C12.7292 14.6294 15.2124 12.0955 16.987 10.6855C18.749 9.28551 19.8071 8.5759 21.7555 7.44972C23.7386 6.30356 24.9016 5.72873 27.035 4.89514C29.171 4.0605 32.655 3.19208 32.655 3.19208L34.4521 14.3312C36.4979 13.8406 38.6335 13.5807 40.8298 13.5807C43.2605 13.5807 45.6169 13.899 47.8595 14.4961L49.6327 3.5051L55.2527 5.20816L60.5322 7.76275L65.3007 10.9986L69.5584 14.9424L60.5277 22.0015C63.5155 25.1264 65.7671 28.9612 67.0041 33.2272L77.6495 28.7631L79.0115 34.4047L79.5061 40.1462L79.1567 46.0008L77.8979 51.7367L67.1742 47.8184C65.9238 52.5441 63.4357 56.7664 60.0778 60.1174L69.2178 67.2619L64.9601 71.2058L60.1916 74.4416L54.9121 76.9962L49.2921 78.6993L47.448 67.2692C45.3293 67.7979 43.1123 68.0785 40.8298 68.0785C38.6501 68.0785 36.5302 67.8226 34.4984 67.3391L32.6657 78.6993L27.0456 76.9962L21.7662 74.4416L16.9976 71.2058L12.7399 67.2619L21.7133 60.2477C18.3225 56.9092 15.802 52.6893 14.5231 47.9593L3.73564 51.9009L2.47688 46.165L2.1275 40.3104L2.6221 34.5689L3.98408 28.9273L14.6107 33.3835C15.8972 28.8447 18.3305 24.7878 21.5777 21.546L12.7292 14.6294ZM67.3975 40.8296C67.3975 55.5026 55.5027 67.3973 40.8298 67.3973C26.1569 67.3973 14.2621 55.5026 14.2621 40.8296C14.2621 26.1567 26.1569 14.2619 40.8298 14.2619C55.5027 14.2619 67.3975 26.1567 67.3975 40.8296Z" stroke="#4051F0" stroke-width="2"/>
<path d="M40.8298 67.3973C55.5027 67.3973 67.3975 55.5026 67.3975 40.8296C67.3975 26.1567 55.5027 14.2619 40.8298 14.2619C26.1569 14.2619 14.2621 26.1567 14.2621 40.8296C14.2621 55.5026 26.1569 67.3973 40.8298 67.3973Z" stroke="#4051F0" stroke-width="2"/>
<circle cx="41" cy="41" r="40" stroke="#080911" stroke-width="2"/>
<circle cx="40.9996" cy="41" r="23.3319" fill="white" stroke="#4051F0" stroke-width="0.681223"/>
<circle cx="41" cy="40.9999" r="21.4585" fill="#4051F0" stroke="white" stroke-width="0.340611"/>
<path d="M38.232 54.2501C34.6458 54.2501 32.1631 53.4726 30.7838 51.9178C29.8308 50.8144 29.3543 49.2721 29.3543 47.2909C29.3543 46.4383 29.4421 45.5229 29.6177 44.5449L31.16 35.893C32.2885 29.5482 36.3636 26.3758 43.3855 26.3758C46.2945 26.3758 48.5014 27.0028 50.0061 28.2567C51.5108 29.4855 52.2631 31.1783 52.2631 33.335C52.2631 34.3381 52.1126 35.3412 51.8117 36.3444C51.5358 37.3224 51.26 38.0497 50.9841 38.5261L50.5703 39.2785H43.9121C44.7397 38.3255 45.1535 36.9713 45.1535 35.2158C45.1535 34.288 44.9152 33.5607 44.4388 33.0341C43.9623 32.4823 43.2601 32.2065 42.3322 32.2065C39.7993 32.2065 38.2946 33.6109 37.8182 36.4196L36.5016 44.0182C36.3762 44.6703 36.3135 45.3097 36.3135 45.9367C36.3135 47.5918 37.3041 48.4194 39.2852 48.4194C41.6676 48.4194 43.0971 47.0777 43.5736 44.3944H50.3446L50.1565 45.4853C49.1534 51.3285 45.1786 54.2501 38.232 54.2501Z" fill="#080911"/>
</svg>
