<svg width="129" height="129" viewBox="0 0 129 129" fill="none" xmlns="http://www.w3.org/2000/svg">
<circle cx="64.3679" cy="64.3679" r="64.3679" fill="white"/>
<path fill-rule="evenodd" clip-rule="evenodd" d="M17.7082 20.8443C17.7082 20.8443 21.8066 16.6621 24.7354 14.3351C27.6435 12.0244 29.3898 10.8532 32.6057 8.9945C35.8786 7.10281 37.7982 6.15408 41.3192 4.77827C44.8447 3.40073 50.5948 1.96744 50.5948 1.96744L53.5608 20.352C56.9374 19.5423 60.4621 19.1135 64.087 19.1135C68.0987 19.1135 71.9878 19.6387 75.6892 20.6243L78.6158 2.48407L87.8913 5.2949L96.6049 9.51113L104.475 14.8517L111.502 21.3609L96.5975 33.0116C101.529 38.1692 105.245 44.4982 107.286 51.5391L124.856 44.1713L127.104 53.4825L127.921 62.9587L127.344 72.6215L125.266 82.0883L107.567 75.6214C105.504 83.4208 101.397 90.3896 95.8549 95.9203L110.94 107.712L103.913 114.221L96.0427 119.562L87.3292 123.778L78.0536 126.589L75.0101 107.724C71.5131 108.597 67.8542 109.06 64.087 109.06C60.4895 109.06 56.9906 108.637 53.6373 107.84L50.6124 126.589L41.3368 123.778L32.6232 119.562L24.7529 114.221L17.7258 107.712L32.536 96.1354C26.9396 90.6254 22.7796 83.6606 20.6689 75.8539L2.86461 82.3593L0.787088 72.8925L0.210449 63.2297L1.02676 53.7535L3.27466 44.4423L20.8135 51.7971C22.9368 44.306 26.9529 37.6103 32.3122 32.2598L17.7082 20.8443ZM107.936 64.0866C107.936 88.3037 88.304 107.936 64.087 107.936C39.8699 107.936 20.2381 88.3037 20.2381 64.0866C20.2381 39.8696 39.8699 20.2378 64.087 20.2378C88.304 20.2378 107.936 39.8696 107.936 64.0866Z" fill="#4051F0"/>
<path d="M64.087 107.936C88.304 107.936 107.936 88.3037 107.936 64.0866C107.936 39.8696 88.304 20.2378 64.087 20.2378C39.8699 20.2378 20.2381 39.8696 20.2381 64.0866C20.2381 88.3037 39.8699 107.936 64.087 107.936Z" fill="#4051F0"/>
<circle cx="64.3679" cy="64.3679" r="63.8057" stroke="#080911" stroke-width="1.12433"/>
<circle cx="64.3673" cy="64.3678" r="38.5083" fill="white" stroke="#4051F0" stroke-width="1.12433"/>
<circle cx="64.3679" cy="64.3678" r="35.4164" fill="#4051F0" stroke="white" stroke-width="0.562165"/>
<path d="M59.7993 86.8687C53.8805 86.8687 49.7829 85.5856 47.5064 83.0194C45.9336 81.1982 45.1472 78.6527 45.1472 75.3829C45.1472 73.9756 45.292 72.4649 45.5818 70.8507L48.1273 56.571C49.9898 46.0993 56.7157 40.8635 68.305 40.8635C73.1063 40.8635 76.7486 41.8982 79.232 43.9677C81.7154 45.9958 82.9571 48.7897 82.9571 52.3492C82.9571 54.0048 82.7088 55.6605 82.2121 57.3161C81.7568 58.9303 81.3015 60.1306 80.8462 60.917L80.1633 62.1587H69.1742C70.5401 60.5859 71.223 58.3508 71.223 55.4535C71.223 53.9221 70.8298 52.7217 70.0434 51.8526C69.257 50.942 68.0981 50.4867 66.5666 50.4867C62.3862 50.4867 59.9028 52.8045 59.1164 57.4402L56.9434 69.9815C56.7364 71.0576 56.633 72.1131 56.633 73.1478C56.633 75.8796 58.2679 77.2455 61.5377 77.2455C65.4698 77.2455 67.829 75.0311 68.6154 70.6023H79.7908L79.4804 72.4028C77.8248 82.0467 71.2644 86.8687 59.7993 86.8687Z" fill="#080911"/>
</svg>
