<svg width="16" height="15" viewBox="0 0 16 15" fill="none" xmlns="http://www.w3.org/2000/svg">
<path fill-rule="evenodd" clip-rule="evenodd" d="M6.89282 14.167C6.89282 13.9526 6.80766 13.747 6.65606 13.5954C6.50447 13.4438 6.29886 13.3586 6.08447 13.3586H2.04272V2.04175H6.08447C6.29886 2.04175 6.50447 1.95658 6.65606 1.80499C6.80766 1.65339 6.89282 1.44779 6.89282 1.2334C6.89282 1.01901 6.80766 0.813404 6.65606 0.661809C6.50447 0.510214 6.29886 0.425049 6.08447 0.425049H2.04272C1.61395 0.425049 1.20274 0.595379 0.899546 0.898569C0.596356 1.20176 0.426025 1.61297 0.426025 2.04175V13.3586C0.426025 13.7874 0.596356 14.1986 0.899546 14.5018C1.20274 14.805 1.61395 14.9753 2.04272 14.9753H6.08447C6.29886 14.9753 6.50447 14.8902 6.65606 14.7386C6.80766 14.587 6.89282 14.3814 6.89282 14.167Z" fill="white"/>
<path d="M15.5557 8.26596C15.7035 8.11567 15.7865 7.91338 15.7869 7.70254V7.69769C15.7864 7.48411 15.7013 7.27943 15.55 7.12862L12.3166 3.89522C12.2421 3.81801 12.1529 3.75643 12.0542 3.71406C11.9556 3.6717 11.8495 3.6494 11.7422 3.64847C11.6349 3.64754 11.5284 3.66799 11.4291 3.70863C11.3297 3.74928 11.2395 3.8093 11.1636 3.8852C11.0877 3.9611 11.0277 4.05135 10.987 4.15069C10.9464 4.25004 10.9259 4.35648 10.9269 4.46381C10.9278 4.57114 10.9501 4.67721 10.9925 4.77584C11.0348 4.87446 11.0964 4.96366 11.1736 5.03822L13.0272 6.89177H5.27832C5.06393 6.89177 4.85833 6.97693 4.70673 7.12853C4.55514 7.28012 4.46997 7.48573 4.46997 7.70012C4.46997 7.91451 4.55514 8.12011 4.70673 8.27171C4.85833 8.4233 5.06393 8.50847 5.27832 8.50847H13.0272L11.1736 10.362C11.0264 10.5145 10.9449 10.7187 10.9467 10.9306C10.9486 11.1426 11.0336 11.3453 11.1835 11.4952C11.3333 11.645 11.5361 11.7301 11.748 11.7319C11.96 11.7337 12.1642 11.6523 12.3166 11.505L15.55 8.27162L15.5557 8.26596Z" fill="white"/>
</svg>
