<svg width="16" height="15" viewBox="0 0 16 15" fill="none" xmlns="http://www.w3.org/2000/svg">
<path fill-rule="evenodd" clip-rule="evenodd" d="M6.89258 14.167C6.89258 13.9526 6.80741 13.747 6.65582 13.5954C6.50422 13.4438 6.29862 13.3586 6.08423 13.3586H2.04248V2.04175H6.08423C6.29862 2.04175 6.50422 1.95658 6.65582 1.80499C6.80741 1.65339 6.89258 1.44779 6.89258 1.2334C6.89258 1.01901 6.80741 0.813404 6.65582 0.661809C6.50422 0.510214 6.29862 0.425049 6.08423 0.425049H2.04248C1.61371 0.425049 1.20249 0.595379 0.899301 0.898569C0.596112 1.20176 0.425781 1.61297 0.425781 2.04175V13.3586C0.425781 13.7874 0.596112 14.1986 0.899301 14.5018C1.20249 14.805 1.61371 14.9753 2.04248 14.9753H6.08423C6.29862 14.9753 6.50422 14.8902 6.65582 14.7386C6.80741 14.587 6.89258 14.3814 6.89258 14.167Z" fill="#3E447C"/>
<path d="M15.5564 8.26602C15.7043 8.11573 15.7873 7.91344 15.7876 7.7026V7.69775C15.7872 7.48417 15.702 7.27949 15.5508 7.12868L12.3174 3.89528C12.2428 3.81807 12.1536 3.75649 12.055 3.71413C11.9563 3.67176 11.8503 3.64946 11.7429 3.64853C11.6356 3.6476 11.5292 3.66805 11.4298 3.70869C11.3305 3.74934 11.2402 3.80936 11.1643 3.88526C11.0884 3.96116 11.0284 4.05141 10.9878 4.15075C10.9471 4.2501 10.9267 4.35654 10.9276 4.46387C10.9285 4.5712 10.9508 4.67728 10.9932 4.7759C11.0356 4.87452 11.0971 4.96372 11.1743 5.03828L13.0279 6.89183H5.27905C5.06467 6.89183 4.85906 6.977 4.70746 7.12859C4.55587 7.28019 4.4707 7.48579 4.4707 7.70018C4.4707 7.91457 4.55587 8.12017 4.70746 8.27177C4.85906 8.42336 5.06467 8.50853 5.27905 8.50853H13.0279L11.1743 10.3621C11.0271 10.5145 10.9456 10.7187 10.9475 10.9307C10.9493 11.1426 11.0343 11.3454 11.1842 11.4952C11.3341 11.6451 11.5368 11.7301 11.7488 11.732C11.9607 11.7338 12.1649 11.6523 12.3174 11.5051L15.5508 8.27168L15.5564 8.26602Z" fill="#3E447C"/>
</svg>
