<svg width="29" height="29" viewBox="0 0 29 29" fill="none" xmlns="http://www.w3.org/2000/svg">
<path d="M16.2451 6.98038L16.0547 6.51804L16.044 6.52242L16.0336 6.52729L16.2451 6.98038ZM21.5391 12.2745L21.9922 12.4859L21.9971 12.4755L22.0015 12.4648L21.5391 12.2745ZM11.0424 11.0423L11.4114 11.3797L11.0424 11.0423ZM9.40188 13.0095L9.00446 12.7061L9.40188 13.0095ZM15.8915 7.33393L21.1856 12.628L21.8927 11.9209L16.5986 6.62682L15.8915 7.33393ZM16.2451 6.98038C16.4354 7.44272 16.4354 7.44273 16.4354 7.44273C16.4354 7.44272 16.4354 7.44271 16.4355 7.44269C16.4356 7.44265 16.4358 7.44257 16.4361 7.44245C16.4366 7.44223 16.4375 7.44186 16.4387 7.44136C16.4412 7.44036 16.445 7.43882 16.45 7.43675C16.4601 7.43262 16.4754 7.42641 16.4956 7.41828C16.5359 7.40203 16.5955 7.37813 16.6721 7.34796C16.8252 7.28759 17.0457 7.2022 17.3136 7.1027C17.8502 6.90338 18.5732 6.6489 19.3241 6.42564C20.0795 6.20108 20.8434 6.01413 21.4676 5.94154C21.7807 5.90514 22.0373 5.90018 22.2302 5.92473C22.4332 5.95057 22.4993 6.00061 22.5091 6.01041L23.2162 5.3033C22.9779 5.06494 22.651 4.97022 22.3564 4.93273C22.0517 4.89394 21.706 4.90708 21.3521 4.94823C20.6426 5.03074 19.8141 5.23671 19.0391 5.46711C18.2598 5.69881 17.5145 5.96133 16.9654 6.16527C16.6904 6.2674 16.4637 6.3552 16.3053 6.41763C16.2261 6.44885 16.164 6.47374 16.1214 6.49093C16.1001 6.49953 16.0837 6.5062 16.0724 6.51077C16.0668 6.51306 16.0625 6.51482 16.0595 6.51604C16.0581 6.51665 16.0569 6.51712 16.0561 6.51746C16.0557 6.51762 16.0554 6.51776 16.0551 6.51785C16.055 6.5179 16.0549 6.51795 16.0548 6.51797C16.0548 6.51801 16.0547 6.51804 16.2451 6.98038ZM22.5091 6.01041C22.5189 6.02021 22.5689 6.08628 22.5948 6.28933C22.6193 6.48219 22.6144 6.73883 22.578 7.05187C22.5054 7.67616 22.3184 8.44007 22.0939 9.19541C21.8706 9.94636 21.6161 10.6693 21.4168 11.206C21.3173 11.4738 21.2319 11.6943 21.1716 11.8475C21.1414 11.924 21.1175 11.9837 21.1012 12.024C21.0931 12.0441 21.0869 12.0594 21.0828 12.0695C21.0807 12.0746 21.0792 12.0783 21.0782 12.0808C21.0777 12.082 21.0773 12.0829 21.0771 12.0834C21.077 12.0837 21.0769 12.0839 21.0768 12.084C21.0768 12.0841 21.0768 12.0841 21.0768 12.0841C21.0768 12.0841 21.0768 12.0841 21.5391 12.2745C22.0015 12.4648 22.0015 12.4648 22.0016 12.4647C22.0016 12.4646 22.0016 12.4645 22.0017 12.4644C22.0018 12.4642 22.0019 12.4638 22.0021 12.4634C22.0024 12.4626 22.0029 12.4615 22.0035 12.46C22.0047 12.457 22.0065 12.4527 22.0088 12.4471C22.0133 12.4359 22.02 12.4194 22.0286 12.3981C22.0458 12.3555 22.0707 12.2934 22.1019 12.2142C22.1643 12.0558 22.2521 11.8291 22.3542 11.5541C22.5582 11.0051 22.8207 10.2598 23.0524 9.48038C23.2828 8.70541 23.4888 7.87695 23.5713 7.16738C23.6124 6.81349 23.6256 6.46783 23.5868 6.16307C23.5493 5.86851 23.4546 5.54166 23.2162 5.3033L22.5091 6.01041ZM11.4114 11.3797C12.8088 9.85146 14.5415 8.32713 16.4565 7.43347L16.0336 6.52729C13.9496 7.49984 12.1129 9.13063 10.6734 10.7049L11.4114 11.3797ZM11.0424 11.0423C11.0644 10.5428 11.0643 10.5428 11.0642 10.5428C11.0642 10.5428 11.0641 10.5428 11.0641 10.5428C11.064 10.5428 11.0638 10.5428 11.0636 10.5428C11.0633 10.5428 11.0628 10.5427 11.0621 10.5427C11.0609 10.5427 11.0592 10.5426 11.0569 10.5425C11.0525 10.5423 11.0461 10.5421 11.0378 10.5417C11.0214 10.5411 10.9975 10.5403 10.967 10.5393C10.906 10.5374 10.8184 10.535 10.7105 10.5333C10.4949 10.5298 10.1965 10.5287 9.86557 10.5382C9.2241 10.5567 8.38902 10.6161 7.81494 10.8075L8.13117 11.7562C8.54973 11.6166 9.2493 11.5564 9.89433 11.5378C10.2066 11.5288 10.4895 11.5298 10.6943 11.5332C10.7966 11.5348 10.879 11.537 10.9354 11.5388C10.9637 11.5397 10.9854 11.5405 10.9998 11.541C11.007 11.5413 11.0124 11.5415 11.0158 11.5417C11.0176 11.5417 11.0188 11.5418 11.0196 11.5418C11.02 11.5418 11.0202 11.5418 11.0204 11.5418C11.0204 11.5419 11.0205 11.5419 11.0205 11.5419C11.0205 11.5419 11.0205 11.5419 11.0205 11.5419C11.0204 11.5419 11.0204 11.5418 11.0424 11.0423ZM7.81494 10.8075C7.52525 10.904 6.95565 11.1695 6.31681 11.4993C5.66657 11.8349 4.90974 12.2552 4.23381 12.6777C3.57128 13.0917 2.94206 13.5348 2.58304 13.9178C2.49053 14.0164 2.40241 14.1251 2.33545 14.2411C2.27143 14.352 2.20332 14.5097 2.20753 14.695C2.21235 14.9069 2.31032 15.091 2.46723 15.2182C2.60523 15.33 2.76924 15.3833 2.91179 15.4118L3.10791 14.4312C3.04366 14.4184 3.05774 14.4096 3.09687 14.4413C3.15489 14.4883 3.20505 14.5742 3.20728 14.6723C3.2089 14.7439 3.18345 14.7723 3.2015 14.7411C3.21662 14.7149 3.24999 14.6685 3.31258 14.6017C3.57396 14.3229 4.10282 13.9388 4.76381 13.5257C5.41141 13.1209 6.14353 12.714 6.77545 12.3879C7.41878 12.0559 7.92454 11.825 8.13117 11.7562L7.81494 10.8075ZM2.91179 15.4118C3.757 15.5808 4.92969 15.7481 5.88174 15.8723C6.35975 15.9346 6.78567 15.9866 7.09212 16.0229C7.24538 16.0411 7.36884 16.0554 7.45411 16.0652C7.49674 16.07 7.52983 16.0738 7.55232 16.0763C7.56357 16.0776 7.57216 16.0786 7.57798 16.0792C7.58089 16.0795 7.5831 16.0798 7.5846 16.0799C7.58536 16.08 7.58593 16.0801 7.58632 16.0801C7.58652 16.0802 7.58667 16.0802 7.58678 16.0802C7.58683 16.0802 7.58688 16.0802 7.5869 16.0802C7.58694 16.0802 7.58696 16.0802 7.64218 15.5833C7.69739 15.0863 7.69739 15.0863 7.69738 15.0863C7.69736 15.0863 7.69734 15.0863 7.6973 15.0863C7.69723 15.0863 7.69711 15.0863 7.69694 15.0863C7.69661 15.0862 7.69611 15.0862 7.69542 15.0861C7.69405 15.0859 7.69196 15.0857 7.68919 15.0854C7.68363 15.0848 7.67531 15.0838 7.66434 15.0826C7.6424 15.0801 7.60989 15.0765 7.56787 15.0716C7.48381 15.062 7.3617 15.0479 7.20993 15.0299C6.90632 14.9939 6.48436 14.9424 6.01108 14.8807C5.06058 14.7567 3.9171 14.593 3.10791 14.4312L2.91179 15.4118ZM17.8146 17.8462C19.3889 16.4067 21.0197 14.57 21.9922 12.4859L21.0861 12.063C20.1924 13.978 18.6681 15.7107 17.1398 17.1082L17.8146 17.8462ZM17.4772 17.4772C16.9777 17.4991 16.9777 17.4991 16.9777 17.4991C16.9777 17.4991 16.9777 17.4991 16.9777 17.4991C16.9777 17.4991 16.9777 17.4991 16.9777 17.4992C16.9777 17.4993 16.9777 17.4996 16.9777 17.4999C16.9777 17.5007 16.9778 17.5019 16.9779 17.5037C16.978 17.5071 16.9782 17.5125 16.9785 17.5197C16.979 17.5342 16.9798 17.5559 16.9807 17.5841C16.9825 17.6405 16.9847 17.723 16.9864 17.8252C16.9897 18.0301 16.9907 18.3129 16.9817 18.6252C16.9632 19.2702 16.9029 19.9698 16.7634 20.3884L17.712 20.7046C17.9034 20.1305 17.9629 19.2954 17.9813 18.654C17.9908 18.323 17.9897 18.0246 17.9862 17.8091C17.9845 17.7011 17.9821 17.6135 17.9802 17.5526C17.9793 17.5221 17.9784 17.4982 17.9778 17.4817C17.9775 17.4734 17.9772 17.467 17.977 17.4626C17.9769 17.4604 17.9769 17.4586 17.9768 17.4574C17.9768 17.4568 17.9768 17.4563 17.9767 17.4559C17.9767 17.4557 17.9767 17.4556 17.9767 17.4554C17.9767 17.4554 17.9767 17.4553 17.9767 17.4553C17.9767 17.4552 17.9767 17.4552 17.4772 17.4772ZM16.7634 20.3884C16.6945 20.595 16.4637 21.1007 16.1316 21.7441C15.8055 22.376 15.3986 23.1081 14.9939 23.7557C14.5807 24.4167 14.1966 24.9456 13.9178 25.2069C13.851 25.2695 13.8046 25.3029 13.7784 25.318C13.7472 25.3361 13.7756 25.3106 13.8472 25.3122C13.9454 25.3145 14.0312 25.3646 14.0782 25.4227C14.1099 25.4618 14.1012 25.4759 14.0883 25.4116L13.1077 25.6077C13.1362 25.7503 13.1895 25.9143 13.3013 26.0523C13.4285 26.2092 13.6126 26.3072 13.8245 26.312C14.0098 26.3162 14.1675 26.2481 14.2784 26.1841C14.3944 26.1171 14.5031 26.029 14.6017 25.9365C14.9847 25.5775 15.4278 24.9482 15.8419 24.2857C16.2643 23.6098 16.6846 22.8529 17.0203 22.2027C17.35 21.5639 17.6155 20.9943 17.712 20.7046L16.7634 20.3884ZM14.0883 25.4116C13.9265 24.6024 13.7628 23.4589 13.6389 22.5084C13.5771 22.0352 13.5257 21.6132 13.4896 21.3096C13.4716 21.1578 13.4575 21.0357 13.4479 20.9517C13.4431 20.9096 13.4394 20.8771 13.4369 20.8552C13.4357 20.8442 13.4347 20.8359 13.4341 20.8303C13.4338 20.8276 13.4336 20.8255 13.4334 20.8241C13.4333 20.8234 13.4333 20.8229 13.4333 20.8226C13.4332 20.8224 13.4332 20.8223 13.4332 20.8222C13.4332 20.8222 13.4332 20.8222 13.4332 20.8221C13.4332 20.8221 13.4332 20.8221 12.9363 20.8773C12.4393 20.9326 12.4393 20.9326 12.4393 20.9326C12.4393 20.9326 12.4393 20.9327 12.4393 20.9327C12.4394 20.9329 12.4394 20.933 12.4394 20.9332C12.4394 20.9336 12.4395 20.9342 12.4396 20.9349C12.4397 20.9364 12.44 20.9386 12.4403 20.9415C12.441 20.9474 12.4419 20.956 12.4432 20.9672C12.4457 20.9897 12.4495 21.0228 12.4544 21.0654C12.4641 21.1507 12.4784 21.2741 12.4966 21.4274C12.533 21.7339 12.5849 22.1598 12.6473 22.6378C12.7714 23.5898 12.9387 24.7625 13.1077 25.6077L14.0883 25.4116ZM7.28862 15.9368L9.2739 17.9221L9.98101 17.215L7.99573 15.2297L7.28862 15.9368ZM9.62746 17.5685C9.5294 17.0783 9.52936 17.0783 9.52931 17.0783C9.52928 17.0783 9.52923 17.0783 9.52918 17.0783C9.52908 17.0783 9.52895 17.0783 9.5288 17.0784C9.5285 17.0784 9.5281 17.0785 9.5276 17.0786C9.5266 17.0788 9.52521 17.0791 9.52343 17.0795C9.51988 17.0802 9.51478 17.0812 9.50825 17.0826C9.49517 17.0852 9.4763 17.0892 9.45237 17.0942C9.40454 17.1043 9.33634 17.119 9.25366 17.1377C9.08876 17.1749 8.86407 17.2284 8.62734 17.293C8.39244 17.357 8.13649 17.4345 7.91248 17.5206C7.7143 17.5969 7.45477 17.7106 7.28862 17.8768L7.99573 18.5839C7.99503 18.5846 8.06638 18.5329 8.27146 18.454C8.4507 18.385 8.6704 18.3177 8.89046 18.2577C9.10869 18.1982 9.31827 18.1483 9.47392 18.1131C9.55151 18.0956 9.61515 18.0819 9.65908 18.0726C9.68103 18.068 9.69803 18.0645 9.70935 18.0621C9.71501 18.061 9.71925 18.0601 9.72197 18.0596C9.72333 18.0593 9.72432 18.0591 9.72491 18.059C9.72521 18.0589 9.72541 18.0589 9.72551 18.0588C9.72556 18.0588 9.72559 18.0588 9.72559 18.0588L9.72557 18.0588C9.72555 18.0588 9.72552 18.0588 9.62746 17.5685ZM7.28862 17.8768C7.1971 17.9683 7.1 18.1207 7.0206 18.2518C6.92921 18.4027 6.82133 18.5945 6.70528 18.8108C6.4728 19.244 6.19952 19.7907 5.94739 20.3369C5.69636 20.8809 5.46069 21.4364 5.3078 21.8842C5.23227 22.1054 5.17026 22.3193 5.14031 22.5007C5.12557 22.59 5.11466 22.6937 5.12243 22.7971C5.12903 22.885 5.15526 23.0681 5.30334 23.2162L6.01045 22.5091C6.06678 22.5654 6.09324 22.6234 6.10525 22.6582C6.11712 22.6927 6.11921 22.7168 6.11962 22.7223C6.12028 22.731 6.11842 22.7152 6.12695 22.6636C6.14353 22.5632 6.18491 22.4101 6.25415 22.2073C6.39078 21.8072 6.61007 21.2874 6.85535 20.756C7.09955 20.2269 7.36395 19.6982 7.58644 19.2836C7.69786 19.0759 7.79679 18.9006 7.87601 18.7698C7.96721 18.6191 8.00453 18.5751 7.99573 18.5839L7.28862 17.8768ZM5.30334 23.2162C5.45143 23.3643 5.63448 23.3905 5.72237 23.3971C5.8258 23.4049 5.92955 23.394 6.01883 23.3792C6.20018 23.3493 6.41415 23.2872 6.63533 23.2117C7.08308 23.0588 7.63867 22.8232 8.18259 22.5721C8.72885 22.32 9.27552 22.0467 9.70877 21.8142C9.92505 21.6982 10.1168 21.5903 10.2677 21.4989C10.3989 21.4195 10.5513 21.3224 10.6428 21.2309L9.93567 20.5238C9.94447 20.515 9.9004 20.5523 9.74977 20.6435C9.61894 20.7227 9.44361 20.8217 9.23595 20.9331C8.82132 21.1556 8.29263 21.42 7.76353 21.6642C7.23209 21.9094 6.71231 22.1287 6.31218 22.2654C6.10942 22.3346 5.95632 22.376 5.8559 22.3926C5.8043 22.4011 5.78849 22.3992 5.79725 22.3999C5.80275 22.4003 5.82683 22.4024 5.86128 22.4143C5.89613 22.4263 5.95411 22.4527 6.01045 22.5091L5.30334 23.2162ZM9.2739 17.9221L10.5974 19.2456L11.3045 18.5385L9.98101 17.215L9.2739 17.9221ZM10.5974 19.2456L12.5827 21.2309L13.2898 20.5238L11.3045 18.5385L10.5974 19.2456ZM10.6428 21.2309C10.8089 21.0648 10.9227 20.8052 10.9989 20.607C11.085 20.383 11.1625 20.1271 11.2266 19.8922C11.2911 19.6555 11.3446 19.4308 11.3818 19.2659C11.4005 19.1832 11.4152 19.115 11.4253 19.0672C11.4304 19.0432 11.4343 19.0244 11.437 19.0113C11.4383 19.0047 11.4393 18.9996 11.4401 18.9961C11.4404 18.9943 11.4407 18.9929 11.4409 18.9919C11.441 18.9914 11.4411 18.991 11.4411 18.9907C11.4412 18.9906 11.4412 18.9904 11.4412 18.9903C11.4412 18.9903 11.4412 18.9902 11.4413 18.9902C11.4413 18.9902 11.4413 18.9901 10.951 18.8921C10.4607 18.794 10.4607 18.794 10.4607 18.794L10.4607 18.7939C10.4607 18.7939 10.4607 18.794 10.4607 18.794C10.4607 18.7941 10.4606 18.7943 10.4606 18.7946C10.4604 18.7952 10.4602 18.7962 10.46 18.7976C10.4594 18.8003 10.4586 18.8045 10.4574 18.8102C10.4551 18.8215 10.4516 18.8385 10.4469 18.8604C10.4376 18.9044 10.4239 18.968 10.4064 19.0456C10.3712 19.2013 10.3213 19.4108 10.2618 19.6291C10.2018 19.8491 10.1345 20.0688 10.0655 20.2481C9.98666 20.4531 9.93496 20.5245 9.93567 20.5238L10.6428 21.2309ZM7.64218 15.5833C8.07489 15.8338 8.07487 15.8338 8.07485 15.8338C8.07485 15.8338 8.07484 15.8339 8.07483 15.8339C8.07482 15.8339 8.07482 15.8339 8.07483 15.8339C8.07485 15.8339 8.07491 15.8338 8.075 15.8336C8.0752 15.8333 8.07555 15.8326 8.07605 15.8318C8.07706 15.83 8.07869 15.8273 8.08094 15.8234C8.08543 15.8158 8.09239 15.804 8.10176 15.7882C8.12051 15.7567 8.14894 15.7093 8.18669 15.6476C8.26222 15.5242 8.37505 15.3436 8.52247 15.1175C8.81745 14.6651 9.25026 14.0321 9.7993 13.3129L9.00446 12.7061C8.43783 13.4483 7.99079 14.1021 7.68483 14.5713C7.53179 14.806 7.41388 14.9947 7.33378 15.1256C7.29373 15.191 7.26312 15.242 7.2423 15.277C7.23188 15.2945 7.22391 15.308 7.21842 15.3174C7.21568 15.3221 7.21356 15.3257 7.21206 15.3283C7.21132 15.3296 7.21072 15.3306 7.21029 15.3313C7.21007 15.3317 7.2099 15.332 7.20976 15.3322C7.20969 15.3324 7.20963 15.3325 7.20958 15.3325C7.20956 15.3326 7.20953 15.3326 7.20952 15.3327C7.20949 15.3327 7.20946 15.3327 7.64218 15.5833ZM9.7993 13.3129C10.26 12.7094 10.8016 12.0466 11.4114 11.3797L10.6734 10.7049C10.0404 11.3972 9.47987 12.0834 9.00446 12.7061L9.7993 13.3129ZM12.9363 20.8773C13.1868 21.3101 13.1868 21.31 13.1869 21.31C13.1869 21.31 13.1869 21.31 13.187 21.3099C13.1871 21.3099 13.1872 21.3098 13.1873 21.3098C13.1875 21.3096 13.1878 21.3094 13.1882 21.3092C13.189 21.3088 13.19 21.3082 13.1913 21.3075C13.1938 21.306 13.1974 21.3038 13.2021 21.3011C13.2115 21.2956 13.225 21.2876 13.2425 21.2772C13.2775 21.2564 13.3285 21.2258 13.3939 21.1857C13.5248 21.1056 13.7136 20.9877 13.9482 20.8347C14.4174 20.5287 15.0713 20.0817 15.8134 19.5151L15.2066 18.7202C14.4875 19.2693 13.8544 19.7021 13.402 19.9971C13.1759 20.1445 12.9953 20.2573 12.8719 20.3328C12.8102 20.3706 12.7628 20.399 12.7313 20.4178C12.7156 20.4271 12.7038 20.4341 12.6961 20.4386C12.6923 20.4408 12.6895 20.4425 12.6877 20.4435C12.6869 20.444 12.6863 20.4443 12.6859 20.4445C12.6858 20.4446 12.6857 20.4447 12.6856 20.4447C12.6856 20.4447 12.6856 20.4447 12.6856 20.4447C12.6856 20.4447 12.6857 20.4447 12.6857 20.4447C12.6857 20.4447 12.6857 20.4446 12.9363 20.8773ZM15.8134 19.5151C16.4362 19.0397 17.1223 18.4791 17.8146 17.8462L17.1398 17.1082C16.473 17.7179 15.8101 18.2595 15.2066 18.7202L15.8134 19.5151ZM15.8636 18.7641L9.75543 12.6559L9.04832 13.363L15.1565 19.4712L15.8636 18.7641Z" fill="#4051F0"/>
<circle cx="15.9141" cy="12.6053" r="2.30761" transform="rotate(45 15.9141 12.6053)" stroke="#4051F0"/>
</svg>
