<svg width="40" height="40" viewBox="0 0 40 40" fill="none" xmlns="http://www.w3.org/2000/svg">
<path d="M22.7845 9.79033L30.2097 17.2155M22.7845 9.79033C22.7845 9.79033 30.6738 6.5418 32.066 7.93402C33.4582 9.32625 30.2097 17.2155 30.2097 17.2155M22.7845 9.79033C19.98 11.0991 17.4769 13.3117 15.4874 15.4874M30.2097 17.2155C28.9009 20.02 26.6883 22.5231 24.5126 24.5126M10.7185 21.8563C10.7185 21.8563 6.5418 21.3922 4.22142 20.9281C1.90104 20.4641 9.79033 16.2874 11.1826 15.8233C12.5748 15.3592 15.4874 15.4874 15.4874 15.4874M10.7185 21.8563L13.5029 24.6408M10.7185 21.8563C10.7185 21.8563 11.6218 20.2961 13.1866 18.2465M18.1437 29.2815C18.1437 29.2815 18.6078 33.4582 19.0718 35.7786C19.5359 38.099 23.7126 30.2097 24.1767 28.8174C24.6408 27.4252 24.5126 24.5126 24.5126 24.5126M18.1437 29.2815L15.3592 26.4971M18.1437 29.2815C18.1437 29.2815 19.7039 28.3782 21.7536 26.8135M15.4874 15.4874C14.6159 16.4405 13.843 17.3866 13.1866 18.2465M24.5126 24.5126C23.5595 25.3841 22.6134 26.157 21.7536 26.8135M13.5029 24.6408C13.5029 24.6408 11.1826 25.1048 10.7185 25.5689C10.2544 26.033 7.46995 31.6019 7.93403 32.066C8.39811 32.5301 13.967 29.7456 14.4311 29.2815C14.8952 28.8174 15.3592 26.4971 15.3592 26.4971M13.5029 24.6408L15.3592 26.4971M13.1866 18.2465L21.7536 26.8135" stroke="white" stroke-width="1.40255"/>
<circle cx="22.3199" cy="17.6795" r="3.23654" transform="rotate(45 22.3199 17.6795)" stroke="white" stroke-width="1.40255"/>
</svg>
