<svg width="19" height="19" viewBox="0 0 19 19" fill="none" xmlns="http://www.w3.org/2000/svg">
<path d="M9.50011 10.64C10.1297 10.64 10.6401 10.1296 10.6401 9.49999C10.6401 8.87038 10.1297 8.35999 9.50011 8.35999C8.8705 8.35999 8.36011 8.87038 8.36011 9.49999C8.36011 10.1296 8.8705 10.64 9.50011 10.64Z" fill="#3E447C"/>
<path d="M6.45996 8.99996C6.18382 8.99996 5.95996 9.22381 5.95996 9.49996C5.95996 9.7761 6.18382 9.99996 6.45996 9.99996V8.99996ZM8.73996 9.99996C9.0161 9.99996 9.23996 9.7761 9.23996 9.49996C9.23996 9.22381 9.0161 8.99996 8.73996 8.99996V9.99996ZM10.26 8.99995C9.98382 8.99995 9.75996 9.22381 9.75996 9.49995C9.75996 9.77609 9.98382 9.99995 10.26 9.99995V8.99995ZM12.54 9.99995C12.8161 9.99995 13.04 9.77609 13.04 9.49995C13.04 9.22381 12.8161 8.99995 12.54 8.99995V9.99995ZM8.99997 8.73996C8.99997 9.0161 9.22383 9.23996 9.49997 9.23996C9.77611 9.23996 9.99997 9.0161 9.99997 8.73996H8.99997ZM9.99997 6.45996C9.99997 6.18382 9.77611 5.95996 9.49997 5.95996C9.22383 5.95996 8.99997 6.18382 8.99997 6.45996H9.99997ZM8.99996 12.54C8.99996 12.8161 9.22382 13.04 9.49996 13.04C9.7761 13.04 9.99996 12.8161 9.99996 12.54H8.99996ZM9.99996 10.26C9.99996 9.98382 9.7761 9.75996 9.49996 9.75996C9.22382 9.75996 8.99996 9.98382 8.99996 10.26H9.99996ZM8.73996 5.95996C8.46382 5.95996 8.23996 6.18382 8.23996 6.45996C8.23996 6.7361 8.46382 6.95996 8.73996 6.95996V5.95996ZM10.26 6.95996C10.5361 6.95996 10.76 6.7361 10.76 6.45996C10.76 6.18382 10.5361 5.95996 10.26 5.95996V6.95996ZM8.73996 12.04C8.46382 12.04 8.23996 12.2638 8.23996 12.54C8.23996 12.8161 8.46382 13.04 8.73996 13.04V12.04ZM10.26 13.04C10.5361 13.04 10.76 12.8161 10.76 12.54C10.76 12.2638 10.5361 12.04 10.26 12.04V13.04ZM6.95997 8.73996C6.95997 8.46382 6.73611 8.23996 6.45997 8.23996C6.18383 8.23996 5.95997 8.46382 5.95997 8.73996H6.95997ZM5.95997 10.26C5.95997 10.5361 6.18383 10.76 6.45997 10.76C6.73611 10.76 6.95997 10.5361 6.95997 10.26H5.95997ZM13.04 8.73995C13.04 8.46381 12.8161 8.23995 12.54 8.23995C12.2639 8.23995 12.04 8.46381 12.04 8.73995H13.04ZM12.04 10.26C12.04 10.5361 12.2639 10.76 12.54 10.76C12.8161 10.76 13.04 10.5361 13.04 10.26H12.04ZM6.45996 9.99996H8.73996V8.99996H6.45996V9.99996ZM10.26 9.99995H12.54V8.99995H10.26V9.99995ZM9.99997 8.73996V6.45996H8.99997V8.73996H9.99997ZM9.99996 12.54V10.26H8.99996V12.54H9.99996ZM8.73996 6.95996H10.26V5.95996H8.73996V6.95996ZM8.73996 13.04H10.26V12.04H8.73996V13.04ZM5.95997 8.73996V10.26H6.95997V8.73996H5.95997ZM12.04 8.73995V10.26H13.04V8.73995H12.04Z" fill="#3E447C"/>
<path d="M9.5 18.5C14.4706 18.5 18.5 14.4706 18.5 9.5C18.5 4.52944 14.4706 0.5 9.5 0.5C4.52944 0.5 0.5 4.52944 0.5 9.5C0.5 14.4706 4.52944 18.5 9.5 18.5Z" stroke="#3E447C"/>
<path d="M9.50005 14.7C12.3719 14.7 14.7 12.3719 14.7 9.50005C14.7 6.62817 12.3719 4.30005 9.50005 4.30005C6.62817 4.30005 4.30005 6.62817 4.30005 9.50005C4.30005 12.3719 6.62817 14.7 9.50005 14.7Z" stroke="#3E447C"/>
<path d="M9.5 0.31665V4.17999" stroke="#3E447C"/>
<path d="M9.5 14.82V18.62" stroke="#3E447C"/>
<path d="M0 9.5H4.18" stroke="#3E447C"/>
<path d="M14.8201 9.5H19.0001" stroke="#3E447C"/>
<path d="M17.2988 5.00897L14.0601 6.84002" stroke="#3E447C"/>
<path d="M4.94001 12.16L1.52002 14.06" stroke="#3E447C"/>
<path d="M4.75 1.27277L6.84 4.94001" stroke="#3E447C"/>
<path d="M12.1599 14.06L14.0599 17.48" stroke="#3E447C"/>
<path d="M14.2499 1.27277L12.1599 4.94002" stroke="#3E447C"/>
<path d="M6.84 14.06L4.75 17.7273" stroke="#3E447C"/>
<path d="M14.0601 12.16L17.7273 14.25" stroke="#3E447C"/>
<path d="M1.27271 4.75L4.93994 6.83999" stroke="#3E447C"/>
</svg>
