<svg width="19" height="19" viewBox="0 0 19 19" fill="none" xmlns="http://www.w3.org/2000/svg">
<path d="M9.50011 10.64C10.1297 10.64 10.6401 10.1296 10.6401 9.49999C10.6401 8.87038 10.1297 8.35999 9.50011 8.35999C8.8705 8.35999 8.36011 8.87038 8.36011 9.49999C8.36011 10.1296 8.8705 10.64 9.50011 10.64Z" fill="#4051F0"/>
<path d="M6.45996 8.99999C6.18382 8.99999 5.95996 9.22384 5.95996 9.49999C5.95996 9.77613 6.18382 9.99999 6.45996 9.99999V8.99999ZM8.73996 9.99999C9.0161 9.99999 9.23996 9.77613 9.23996 9.49999C9.23996 9.22384 9.0161 8.99999 8.73996 8.99999V9.99999ZM10.26 8.99998C9.98382 8.99998 9.75996 9.22384 9.75996 9.49998C9.75996 9.77612 9.98382 9.99998 10.26 9.99998V8.99998ZM12.54 9.99998C12.8161 9.99998 13.04 9.77612 13.04 9.49998C13.04 9.22384 12.8161 8.99998 12.54 8.99998V9.99998ZM8.99997 8.73999C8.99997 9.01613 9.22383 9.23999 9.49997 9.23999C9.77611 9.23999 9.99997 9.01613 9.99997 8.73999H8.99997ZM9.99997 6.45999C9.99997 6.18385 9.77611 5.95999 9.49997 5.95999C9.22383 5.95999 8.99997 6.18385 8.99997 6.45999H9.99997ZM8.99996 12.54C8.99996 12.8161 9.22382 13.04 9.49996 13.04C9.7761 13.04 9.99996 12.8161 9.99996 12.54H8.99996ZM9.99996 10.26C9.99996 9.98385 9.7761 9.75999 9.49996 9.75999C9.22382 9.75999 8.99996 9.98385 8.99996 10.26H9.99996ZM8.73996 5.95999C8.46382 5.95999 8.23996 6.18385 8.23996 6.45999C8.23996 6.73613 8.46382 6.95999 8.73996 6.95999V5.95999ZM10.26 6.95999C10.5361 6.95999 10.76 6.73613 10.76 6.45999C10.76 6.18385 10.5361 5.95999 10.26 5.95999V6.95999ZM8.73996 12.04C8.46382 12.04 8.23996 12.2638 8.23996 12.54C8.23996 12.8161 8.46382 13.04 8.73996 13.04V12.04ZM10.26 13.04C10.5361 13.04 10.76 12.8161 10.76 12.54C10.76 12.2638 10.5361 12.04 10.26 12.04V13.04ZM6.95997 8.73999C6.95997 8.46385 6.73611 8.23999 6.45997 8.23999C6.18383 8.23999 5.95997 8.46385 5.95997 8.73999H6.95997ZM5.95997 10.26C5.95997 10.5361 6.18383 10.76 6.45997 10.76C6.73611 10.76 6.95997 10.5361 6.95997 10.26H5.95997ZM13.04 8.73998C13.04 8.46384 12.8161 8.23998 12.54 8.23998C12.2639 8.23998 12.04 8.46384 12.04 8.73998H13.04ZM12.04 10.26C12.04 10.5361 12.2639 10.76 12.54 10.76C12.8161 10.76 13.04 10.5361 13.04 10.26H12.04ZM6.45996 9.99999H8.73996V8.99999H6.45996V9.99999ZM10.26 9.99998H12.54V8.99998H10.26V9.99998ZM9.99997 8.73999V6.45999H8.99997V8.73999H9.99997ZM9.99996 12.54V10.26H8.99996V12.54H9.99996ZM8.73996 6.95999H10.26V5.95999H8.73996V6.95999ZM8.73996 13.04H10.26V12.04H8.73996V13.04ZM5.95997 8.73999V10.26H6.95997V8.73999H5.95997ZM12.04 8.73998V10.26H13.04V8.73998H12.04Z" fill="#4051F0"/>
<path d="M9.5 18.5C14.4706 18.5 18.5 14.4706 18.5 9.5C18.5 4.52944 14.4706 0.5 9.5 0.5C4.52944 0.5 0.5 4.52944 0.5 9.5C0.5 14.4706 4.52944 18.5 9.5 18.5Z" stroke="#4051F0"/>
<path d="M9.50005 14.7C12.3719 14.7 14.7 12.3719 14.7 9.50002C14.7 6.62814 12.3719 4.30002 9.50005 4.30002C6.62817 4.30002 4.30005 6.62814 4.30005 9.50002C4.30005 12.3719 6.62817 14.7 9.50005 14.7Z" stroke="#4051F0"/>
<path d="M9.5 0.31665V4.17999" stroke="#4051F0"/>
<path d="M9.5 14.82V18.62" stroke="#4051F0"/>
<path d="M0 9.5H4.18" stroke="#4051F0"/>
<path d="M14.8201 9.5H19.0001" stroke="#4051F0"/>
<path d="M17.2988 5.00897L14.0601 6.84002" stroke="#4051F0"/>
<path d="M4.94001 12.16L1.52002 14.06" stroke="#4051F0"/>
<path d="M4.75 1.27277L6.84 4.94001" stroke="#4051F0"/>
<path d="M12.1599 14.06L14.0599 17.48" stroke="#4051F0"/>
<path d="M14.2499 1.27277L12.1599 4.94002" stroke="#4051F0"/>
<path d="M6.84 14.06L4.75 17.7273" stroke="#4051F0"/>
<path d="M14.0601 12.16L17.7273 14.25" stroke="#4051F0"/>
<path d="M1.27271 4.75003L4.93994 6.84002" stroke="#4051F0"/>
</svg>
