<svg width="28" height="28" viewBox="0 0 28 28" fill="none" xmlns="http://www.w3.org/2000/svg">
<g clip-path="url(#clip0_735_1428)">
<path d="M14.0002 15.6801C14.928 15.6801 15.6802 14.9279 15.6802 14.0001C15.6802 13.0722 14.928 12.3201 14.0002 12.3201C13.0723 12.3201 12.3202 13.0722 12.3202 14.0001C12.3202 14.9279 13.0723 15.6801 14.0002 15.6801Z" fill="white"/>
<path d="M9.51995 13.263C9.11301 13.263 8.78311 13.5928 8.78311 13.9998C8.78311 14.4067 9.11301 14.7366 9.51995 14.7366V13.263ZM12.88 14.7366C13.2869 14.7366 13.6168 14.4067 13.6168 13.9998C13.6168 13.5928 13.2869 13.263 12.88 13.263V14.7366ZM15.12 13.2629C14.713 13.2629 14.3831 13.5928 14.3831 13.9998C14.3831 14.4067 14.713 14.7366 15.12 14.7366V13.2629ZM18.48 14.7366C18.8869 14.7366 19.2168 14.4067 19.2168 13.9998C19.2168 13.5928 18.8869 13.2629 18.48 13.2629V14.7366ZM13.2631 12.8798C13.2631 13.2867 13.593 13.6166 14 13.6166C14.4069 13.6166 14.7368 13.2867 14.7368 12.8798H13.2631ZM14.7368 9.5198C14.7368 9.11286 14.4069 8.78296 14 8.78296C13.593 8.78296 13.2631 9.11286 13.2631 9.5198H14.7368ZM13.2631 18.4798C13.2631 18.8867 13.593 19.2167 14 19.2167C14.4069 19.2167 14.7368 18.8867 14.7368 18.4798H13.2631ZM14.7368 15.1198C14.7368 14.7129 14.4069 14.383 14 14.383C13.593 14.383 13.2631 14.7129 13.2631 15.1198H14.7368ZM12.88 8.78296C12.473 8.78296 12.1431 9.11286 12.1431 9.5198C12.1431 9.92674 12.473 10.2566 12.88 10.2566V8.78296ZM15.12 10.2566C15.5269 10.2566 15.8568 9.92674 15.8568 9.5198C15.8568 9.11286 15.5269 8.78296 15.12 8.78296V10.2566ZM12.88 17.743C12.473 17.743 12.1431 18.0728 12.1431 18.4798C12.1431 18.8867 12.473 19.2167 12.88 19.2167V17.743ZM15.12 19.2167C15.5269 19.2167 15.8568 18.8867 15.8568 18.4798C15.8568 18.0728 15.5269 17.743 15.12 17.743V19.2167ZM10.2568 12.8798C10.2568 12.4729 9.92691 12.143 9.51997 12.143C9.11303 12.143 8.78313 12.4729 8.78313 12.8798H10.2568ZM8.78313 15.1198C8.78313 15.5267 9.11303 15.8567 9.51997 15.8567C9.92691 15.8567 10.2568 15.5267 10.2568 15.1198H8.78313ZM19.2168 12.8798C19.2168 12.4728 18.8869 12.1429 18.48 12.1429C18.0731 12.1429 17.7431 12.4728 17.7431 12.8798H19.2168ZM17.7431 15.1198C17.7431 15.5267 18.0731 15.8567 18.48 15.8567C18.8869 15.8567 19.2168 15.5267 19.2168 15.1198H17.7431ZM9.51995 14.7366H12.88V13.263H9.51995V14.7366ZM15.12 14.7366H18.48V13.2629H15.12V14.7366ZM14.7368 12.8798V9.5198H13.2631V12.8798H14.7368ZM14.7368 18.4798V15.1198H13.2631V18.4798H14.7368ZM12.88 10.2566H15.12V8.78296H12.88V10.2566ZM12.88 19.2167H15.12V17.743H12.88V19.2167ZM8.78313 12.8798V15.1198H10.2568V12.8798H8.78313ZM17.7431 12.8798V15.1198H19.2168V12.8798H17.7431Z" fill="white"/>
<path d="M14 27.2631C21.325 27.2631 27.2631 21.325 27.2631 14C27.2631 6.67493 21.325 0.736816 14 0.736816C6.67493 0.736816 0.736816 6.67493 0.736816 14C0.736816 21.325 6.67493 27.2631 14 27.2631Z" stroke="white" stroke-width="1.47368"/>
<path d="M14.0001 21.6632C18.2323 21.6632 21.6632 18.2323 21.6632 14.0001C21.6632 9.76783 18.2323 6.33691 14.0001 6.33691C9.76783 6.33691 6.33691 9.76783 6.33691 14.0001C6.33691 18.2323 9.76783 21.6632 14.0001 21.6632Z" stroke="white" stroke-width="1.47368"/>
<path d="M14 0.466553V6.1599" stroke="white" stroke-width="1.47368"/>
<path d="M14 21.8398V27.4398" stroke="white" stroke-width="1.47368"/>
<path d="M0 14H6.16" stroke="white" stroke-width="1.47368"/>
<path d="M21.8401 14H28.0001" stroke="white" stroke-width="1.47368"/>
<path d="M25.4929 7.38159L20.7201 10.08" stroke="white" stroke-width="1.47368"/>
<path d="M7.28001 17.9197L2.24002 20.7197" stroke="white" stroke-width="1.47368"/>
<path d="M7 1.87549L10.08 7.27984" stroke="white" stroke-width="1.47368"/>
<path d="M17.9199 20.72L20.7199 25.76" stroke="white" stroke-width="1.47368"/>
<path d="M20.9999 1.87549L17.9199 7.27986" stroke="white" stroke-width="1.47368"/>
<path d="M10.08 20.72L7 26.1244" stroke="white" stroke-width="1.47368"/>
<path d="M20.7201 17.9197L26.1244 20.9997" stroke="white" stroke-width="1.47368"/>
<path d="M1.87552 7L7.27987 10.08" stroke="white" stroke-width="1.47368"/>
</g>
<defs>
<clipPath id="clip0_735_1428">
<rect width="28" height="28" fill="white"/>
</clipPath>
</defs>
</svg>
