<svg width="22" height="22" viewBox="0 0 22 22" fill="none" xmlns="http://www.w3.org/2000/svg">
<path d="M0.452375 14.2079C1.14234 16.4635 2.53823 18.438 4.43456 19.8407C6.33089 21.2435 8.62748 22.0004 10.9862 22C17.0693 22 22 17.0747 22 11C22 4.92525 17.0693 8.24703e-07 10.9876 8.24703e-07C8.19538 -0.00107935 5.50705 1.05897 3.467 2.9655C1.42695 4.87203 0.187638 7.48256 0 10.2685L0.004125 10.2767L5.92213 12.7091C6.45587 12.3558 7.08804 12.181 7.7275 12.21L10.4225 8.2995L10.4211 8.2445C10.4222 7.13537 10.8632 6.07197 11.6473 5.28757C12.4315 4.50317 13.4948 4.06183 14.6039 4.06038C15.713 4.06183 16.7763 4.50317 17.5604 5.28757C18.3445 6.07197 18.7855 7.13537 18.7866 8.2445C18.7862 8.80182 18.6746 9.35347 18.4583 9.86712C18.242 10.3808 17.9254 10.8461 17.5271 11.2359C17.1287 11.6257 16.6566 11.932 16.1384 12.1371C15.6201 12.3421 15.0662 12.4417 14.509 12.43L10.6535 15.18C10.6666 15.6894 10.5521 16.194 10.3205 16.6478C10.0889 17.1017 9.74744 17.4905 9.32729 17.7788C8.90713 18.0671 8.42156 18.2458 7.91475 18.2986C7.40793 18.3514 6.89595 18.2767 6.42537 18.0812C5.97372 17.893 5.57401 17.5989 5.26001 17.2236C4.94602 16.8484 4.72697 16.403 4.62138 15.9252L0.45375 14.2079H0.452375Z" fill="#080911"/>
</svg>
