<svg width="82" height="82" viewBox="0 0 82 82" fill="none" xmlns="http://www.w3.org/2000/svg">
<circle cx="41" cy="41" r="40" fill="url(#paint0_radial_922_4669)"/>
<path fill-rule="evenodd" clip-rule="evenodd" d="M21.6157 74.586C2.98044 63.9133 -3.46271 40.1569 7.23613 21.5675C17.9353 2.97842 41.7509 -3.44875 60.3862 7.22355C79.0218 17.8962 85.465 41.6527 74.7658 60.2421C64.0669 78.8311 40.251 85.2583 21.6157 74.586Z" stroke="url(#paint1_linear_922_4669)" stroke-width="2.74833" stroke-miterlimit="1.5" stroke-linecap="round" stroke-linejoin="round"/>
<path d="M47.5567 49.5792C56.1083 43.295 61.632 39.675 68.178 33.7695C68.4831 39.9422 65.6695 43.4637 54.0868 51.6413C52.5368 50.6696 51.631 50.9582 49.9625 52.6724C50.135 54.1863 50.5249 54.8309 52.0247 55.4219C49.8773 56.3072 49.2064 55.6734 48.2441 54.0471C46.9846 55.2065 45.8783 56.1889 44.8564 57.0567L40.69 60.3294C38.7835 61.7045 36.8071 62.9787 34.1529 64.7014C34.1529 64.7014 33.8092 67.4509 33.4655 67.4509C33.1219 67.4509 31.4034 66.4199 30.3724 65.0451C29.3413 63.6704 28.6539 62.2956 28.9976 61.9519C29.3412 61.6082 31.4034 61.6082 31.4034 61.6082C33.3035 59.845 34.8719 58.4467 36.4959 57.1403L40.69 54.0471C42.0668 53.11 43.6236 52.1105 45.4946 50.9539C43.7762 49.5792 43.874 48.5683 45.1509 47.1734C45.5261 48.9762 46.09 49.4469 47.5567 49.5792Z" fill="#432600" stroke="#432600" stroke-width="1.06667"/>
<path d="M40.5939 14.8667L36.8133 25.521H24.4406L34.4075 32.0511L30.9706 43.0491L40.5939 36.519L49.8735 43.0491L46.4366 32.0511L55.7161 25.521H44.3744L40.5939 14.8667Z" fill="#663F20"/>
<path d="M33.3764 49.2355C24.8249 42.9513 19.3012 39.3313 12.7552 33.4258C12.45 39.5985 15.2637 43.12 26.8464 51.2976C28.3964 50.3259 29.3022 50.6145 30.9706 52.3287C30.7982 53.8426 30.4083 54.4872 28.9085 55.0782C31.0559 55.9635 31.7268 55.3297 32.6891 53.7034C38.3994 58.9596 40.9606 60.5803 46.7802 64.3577C46.7802 64.3577 47.124 67.1072 47.4676 67.1072C47.8113 67.1072 49.5297 66.0762 50.5608 64.7014C51.5919 63.3267 52.2792 61.9519 51.9356 61.6082C51.5919 61.2646 49.5297 61.2646 49.5297 61.2646C44.7776 56.8544 42.0998 54.7277 35.4385 50.6102C37.157 49.2355 37.0591 48.2246 35.7823 46.8297C35.4071 48.6325 34.8432 49.1032 33.3764 49.2355Z" fill="#663F20"/>
<path d="M40.5939 14.8667L36.8133 25.521H24.4406L34.4075 32.0511L30.9706 43.0491L40.5939 36.519L49.8735 43.0491L46.4366 32.0511L55.7161 25.521H44.3744L40.5939 14.8667Z" stroke="#663F20" stroke-width="1.06667"/>
<path d="M33.3764 49.2355C24.8249 42.9513 19.3012 39.3313 12.7552 33.4258C12.45 39.5985 15.2637 43.12 26.8464 51.2976C28.3964 50.3259 29.3022 50.6145 30.9706 52.3287C30.7982 53.8426 30.4083 54.4872 28.9085 55.0782C31.0559 55.9635 31.7268 55.3297 32.6891 53.7034C38.3994 58.9596 40.9606 60.5803 46.7802 64.3577C46.7802 64.3577 47.124 67.1072 47.4676 67.1072C47.8113 67.1072 49.5297 66.0762 50.5608 64.7014C51.5919 63.3267 52.2792 61.9519 51.9356 61.6082C51.5919 61.2646 49.5297 61.2646 49.5297 61.2646C44.7776 56.8544 42.0998 54.7277 35.4385 50.6102C37.157 49.2355 37.0591 48.2246 35.7823 46.8297C35.4071 48.6325 34.8432 49.1032 33.3764 49.2355Z" stroke="#663F20" stroke-width="1.06667"/>
<defs>
<radialGradient id="paint0_radial_922_4669" cx="0" cy="0" r="1" gradientUnits="userSpaceOnUse" gradientTransform="translate(41 41) rotate(90) scale(40)">
<stop offset="0.526042" stop-color="#FFAB06"/>
<stop offset="1" stop-color="#955C00"/>
</radialGradient>
<linearGradient id="paint1_linear_922_4669" x1="41.0011" y1="2.06665" x2="41.0011" y2="79.7429" gradientUnits="userSpaceOnUse">
<stop stop-color="#663F20"/>
<stop offset="1" stop-color="#432600"/>
</linearGradient>
</defs>
</svg>
