<svg width="32" height="32" viewBox="0 0 32 32" fill="none" xmlns="http://www.w3.org/2000/svg">
<path d="M10 8C9.73478 8 9.48043 8.10536 9.29289 8.29289C9.10536 8.48043 9 8.73478 9 9C9 9.26522 9.10536 9.51957 9.29289 9.70711C9.48043 9.89464 9.73478 10 10 10V8ZM14 10C14.2652 10 14.5196 9.89464 14.7071 9.70711C14.8946 9.51957 15 9.26522 15 9C15 8.73478 14.8946 8.48043 14.7071 8.29289C14.5196 8.10536 14.2652 8 14 8V10ZM10 15C9.73478 15 9.48043 15.1054 9.29289 15.2929C9.10536 15.4804 9 15.7348 9 16C9 16.2652 9.10536 16.5196 9.29289 16.7071C9.48043 16.8946 9.73478 17 10 17V15ZM22 17C22.2652 17 22.5196 16.8946 22.7071 16.7071C22.8946 16.5196 23 16.2652 23 16C23 15.7348 22.8946 15.4804 22.7071 15.2929C22.5196 15.1054 22.2652 15 22 15V17ZM10 19C9.73478 19 9.48043 19.1054 9.29289 19.2929C9.10536 19.4804 9 19.7348 9 20C9 20.2652 9.10536 20.5196 9.29289 20.7071C9.48043 20.8946 9.73478 21 10 21V19ZM22 21C22.2652 21 22.5196 20.8946 22.7071 20.7071C22.8946 20.5196 23 20.2652 23 20C23 19.7348 22.8946 19.4804 22.7071 19.2929C22.5196 19.1054 22.2652 19 22 19V21ZM10 23C9.73478 23 9.48043 23.1054 9.29289 23.2929C9.10536 23.4804 9 23.7348 9 24C9 24.2652 9.10536 24.5196 9.29289 24.7071C9.48043 24.8946 9.73478 25 10 25V23ZM14 25C14.2652 25 14.5196 24.8946 14.7071 24.7071C14.8946 24.5196 15 24.2652 15 24C15 23.7348 14.8946 23.4804 14.7071 23.2929C14.5196 23.1054 14.2652 23 14 23V25ZM8 4H24V2H8V4ZM25 5V27H27V5H25ZM24 28H8V30H24V28ZM7 27V5H5V27H7ZM8 28C7.73478 28 7.48043 27.8946 7.29289 27.7071C7.10536 27.5196 7 27.2652 7 27H5C5 27.7956 5.31607 28.5587 5.87868 29.1213C6.44129 29.6839 7.20435 30 8 30V28ZM25 27C25 27.2652 24.8946 27.5196 24.7071 27.7071C24.5196 27.8946 24.2652 28 24 28V30C24.7956 30 25.5587 29.6839 26.1213 29.1213C26.6839 28.5587 27 27.7956 27 27H25ZM24 4C24.2652 4 24.5196 4.10536 24.7071 4.29289C24.8946 4.48043 25 4.73478 25 5H27C27 4.20435 26.6839 3.44129 26.1213 2.87868C25.5587 2.31607 24.7956 2 24 2V4ZM8 2C7.20435 2 6.44129 2.31607 5.87868 2.87868C5.31607 3.44129 5 4.20435 5 5H7C7 4.73478 7.10536 4.48043 7.29289 4.29289C7.48043 4.10536 7.73478 4 8 4V2ZM10 10H14V8H10V10ZM10 17H22V15H10V17ZM10 21H22V19H10V21ZM10 25H14V23H10V25Z" fill="#3E447C"/>
<path d="M22 9.5C22.2761 9.5 22.5 9.27614 22.5 9C22.5 8.72386 22.2761 8.5 22 8.5C21.7239 8.5 21.5 8.72386 21.5 9C21.5 9.27614 21.7239 9.5 22 9.5Z" fill="#3E447C" stroke="#3E447C"/>
</svg>
