<svg width="88" height="88" viewBox="0 0 88 88" fill="none" xmlns="http://www.w3.org/2000/svg">
<circle cx="44" cy="44" r="43" fill="url(#paint0_radial_456_2529)"/>
<path fill-rule="evenodd" clip-rule="evenodd" d="M23.1622 80.105C3.12926 68.6319 -3.79713 43.0937 7.70412 23.11C19.2058 3.12682 44.8075 -3.78239 64.8404 7.69033C84.8737 19.1634 91.8001 44.7017 80.2985 64.6853C68.7972 84.6685 43.1951 91.5777 23.1622 80.105Z" stroke="url(#paint1_linear_456_2529)" stroke-width="2.95445" stroke-miterlimit="1.5" stroke-linecap="round" stroke-linejoin="round"/>
<path d="M51.0488 53.2226C60.2417 46.4671 66.1796 42.5756 73.2166 36.2272C73.5446 42.8628 70.52 46.6484 58.0686 55.4394C56.4023 54.3948 55.4286 54.705 53.635 56.5477C53.8204 58.1753 54.2395 58.8682 55.8518 59.5035C53.5434 60.4552 52.8222 59.7739 51.7877 58.0256C50.4337 59.2719 49.2444 60.3281 48.1459 61.2609L43.667 64.7791C41.6175 66.2573 39.4929 67.627 36.6397 69.479C36.6397 69.479 36.2701 72.4347 35.9007 72.4347C35.5313 72.4347 33.684 71.3263 32.5756 69.8485C31.4672 68.3706 30.7283 66.8927 31.0977 66.5233C31.4671 66.1538 33.684 66.1538 33.684 66.1538C35.7265 64.2583 37.4126 62.7552 39.1584 61.3508L43.667 58.0256C45.147 57.0182 46.8206 55.9437 48.832 54.7004C46.9847 53.2226 47.0899 52.1359 48.4625 50.6363C48.8658 52.5744 49.472 53.0804 51.0488 53.2226Z" fill="#432600" stroke="#432600" stroke-width="1.14667"/>
<path d="M43.5634 15.9067L39.4993 27.3601H26.1985L36.913 34.3799L33.2184 46.2028L43.5634 39.1829L53.5389 46.2028L49.8443 34.3799L59.8198 27.3601H47.6275L43.5634 15.9067Z" fill="#663F20"/>
<path d="M35.8046 52.8531C26.6117 46.0976 20.6737 42.2061 13.6367 35.8578C13.3087 42.4934 16.3334 46.2789 28.7848 55.0699C30.4511 54.0253 31.4248 54.3356 33.2184 56.1783C33.033 57.8058 32.6139 58.4987 31.0016 59.134C33.31 60.0858 34.0312 59.4044 35.0657 57.6562C41.2043 63.3065 43.9576 65.0488 50.2137 69.1095C50.2137 69.1095 50.5832 72.0653 50.9526 72.0653C51.3221 72.0653 53.1694 70.9569 54.2778 69.479C55.3862 68.0012 56.1251 66.5233 55.7557 66.1538C55.3863 65.7844 53.1694 65.7844 53.1694 65.7844C48.0608 61.0435 45.1822 58.7572 38.0214 54.331C39.8687 52.8531 39.7635 51.7664 38.3909 50.2669C37.9875 52.2049 37.3813 52.7109 35.8046 52.8531Z" fill="#663F20"/>
<path d="M43.5634 15.9067L39.4993 27.3601H26.1985L36.913 34.3799L33.2184 46.2028L43.5634 39.1829L53.5389 46.2028L49.8443 34.3799L59.8198 27.3601H47.6275L43.5634 15.9067Z" stroke="#663F20" stroke-width="1.14667"/>
<path d="M35.8046 52.8531C26.6117 46.0976 20.6737 42.2061 13.6367 35.8578C13.3087 42.4934 16.3334 46.2789 28.7848 55.0699C30.4511 54.0253 31.4248 54.3356 33.2184 56.1783C33.033 57.8058 32.6139 58.4987 31.0016 59.134C33.31 60.0858 34.0312 59.4044 35.0657 57.6562C41.2043 63.3065 43.9576 65.0488 50.2137 69.1095C50.2137 69.1095 50.5832 72.0653 50.9526 72.0653C51.3221 72.0653 53.1694 70.9569 54.2778 69.479C55.3862 68.0012 56.1251 66.5233 55.7557 66.1538C55.3863 65.7844 53.1694 65.7844 53.1694 65.7844C48.0608 61.0435 45.1822 58.7572 38.0214 54.331C39.8687 52.8531 39.7635 51.7664 38.3909 50.2669C37.9875 52.2049 37.3813 52.7109 35.8046 52.8531Z" stroke="#663F20" stroke-width="1.14667"/>
<defs>
<radialGradient id="paint0_radial_456_2529" cx="0" cy="0" r="1" gradientUnits="userSpaceOnUse" gradientTransform="translate(44 44) rotate(90) scale(43)">
<stop offset="0.526042" stop-color="#FFAB06"/>
<stop offset="1" stop-color="#955C00"/>
</radialGradient>
<linearGradient id="paint1_linear_456_2529" x1="44.0014" y1="2.14667" x2="44.0014" y2="85.6486" gradientUnits="userSpaceOnUse">
<stop stop-color="#663F20"/>
<stop offset="1" stop-color="#432600"/>
</linearGradient>
</defs>
</svg>
