<?xml version="1.0" standalone="no"?>
<!DOCTYPE svg PUBLIC "-//W3C//DTD SVG 20010904//EN"
 "http://www.w3.org/TR/2001/REC-SVG-20010904/DTD/svg10.dtd">
<svg version="1.0" xmlns="http://www.w3.org/2000/svg"
 width="700.000000pt" height="700.000000pt" viewBox="0 0 700.000000 700.000000"
 preserveAspectRatio="xMidYMid meet">
<metadata>
Created by potrace 1.14, written by Peter Selinger 2001-2017
</metadata>
<g transform="translate(0.000000,700.000000) scale(0.100000,-0.100000)"
fill="#000000" stroke="none">
<path d="M3240 6989 c-749 -57 -1452 -348 -2025 -839 -125 -107 -343 -334
-448 -465 -848 -1062 -1005 -2523 -403 -3735 179 -360 373 -629 665 -921 293
-292 561 -486 921 -665 1025 -509 2252 -479 3250 78 292 163 525 341 771 587
223 224 381 424 529 671 709 1180 656 2688 -133 3805 -225 319 -536 632 -847
852 -656 466 -1477 693 -2280 632z m665 -183 c216 -29 255 -37 255 -56 0 -9
-31 -212 -70 -449 -38 -238 -70 -434 -70 -435 0 -2 -30 3 -67 11 -212 44 -521
55 -753 26 -74 -9 -148 -17 -164 -17 l-30 -1 -67 415 c-37 228 -68 427 -68
442 -1 17 5 29 17 32 27 8 227 36 332 46 132 12 552 4 685 -14z m-2537 -1377
c191 -150 348 -273 349 -273 1 -1 -32 -42 -73 -92 -162 -191 -330 -479 -415
-709 -18 -49 -33 -91 -34 -92 -1 -3 -824 343 -830 349 -13 13 131 338 221 500
127 228 388 588 426 588 4 0 164 -122 356 -271z m4798 65 c156 -207 293 -444
392 -677 33 -78 63 -151 66 -163 6 -19 -29 -35 -419 -199 -234 -98 -428 -175
-431 -172 -3 3 -28 61 -56 129 -89 221 -209 427 -358 612 -39 48 -70 90 -68
91 2 2 165 130 363 285 l360 281 34 -38 c18 -21 71 -88 117 -149z m-2520 -34
c480 -39 906 -235 1243 -571 768 -769 768 -2009 0 -2778 -469 -468 -1138 -670
-1783 -536 -1065 221 -1746 1253 -1531 2320 74 369 260 716 525 982 371 373
837 573 1376 592 23 0 99 -4 170 -9z m2582 -2809 c238 -87 435 -161 439 -165
19 -18 -154 -425 -262 -613 -114 -200 -309 -477 -389 -552 l-25 -24 -38 30
c-21 17 -186 145 -366 286 -180 141 -327 260 -327 264 0 4 35 50 78 101 197
239 327 476 447 820 2 6 6 12 7 12 2 0 198 -72 436 -159z m-5029 107 c26 -88
114 -289 172 -393 92 -166 190 -304 324 -461 l35 -40 -361 -283 -362 -282 -23
22 c-85 80 -295 380 -404 578 -111 202 -268 579 -245 588 47 18 841 311 846
312 3 1 11 -18 18 -41z m2860 -2062 c55 -345 70 -460 61 -466 -15 -9 -220 -38
-360 -50 -139 -12 -377 -12 -520 0 -128 11 -336 39 -361 49 -14 5 -7 60 58
460 40 250 75 456 77 459 2 2 53 -5 113 -15 157 -26 594 -24 738 4 55 11 104
19 110 18 5 -1 43 -208 84 -459z"/>
<path d="M3300 5304 c-797 -98 -1423 -678 -1582 -1465 -20 -99 -23 -144 -23
-339 0 -195 3 -240 23 -339 149 -737 706 -1294 1442 -1443 100 -20 144 -23
340 -23 195 0 240 3 339 23 736 149 1294 706 1443 1442 20 100 23 144 23 340
0 195 -3 240 -23 339 -149 737 -705 1295 -1438 1441 -86 18 -151 23 -309 25
-110 2 -216 1 -235 -1z"/>
</g>
</svg>
